# Blender v2.82 (sub 7) OBJ File: 'Append-LongGrass.blend'
# www.blender.org
mtllib grass1.mtl
o Cube.014_Cube.024
v -1.080317 -0.102372 -0.321220
v -1.002244 1.152196 -0.478947
v -0.946991 -0.113052 -0.390883
v -0.962686 1.149027 -0.499616
v -1.063101 -0.101872 -0.288347
v -0.998827 1.152295 -0.472422
v -0.929775 -0.112553 -0.358010
v -0.959269 1.149126 -0.493091
v -1.003969 0.731406 -0.364817
v -0.921190 0.724774 -0.408069
v -0.911412 0.725058 -0.389399
v -0.994191 0.731689 -0.346147
v -1.066267 1.586179 -0.823268
v -1.026709 1.583010 -0.843937
v -1.023291 1.583110 -0.837412
v -1.062849 1.586279 -0.816743
v -0.901742 -0.150932 -0.389127
v -0.867190 1.103636 -0.216560
v -0.964734 -0.161612 -0.252523
v -0.885879 1.100467 -0.176029
v -0.935455 -0.150432 -0.404634
v -0.873881 1.103735 -0.219638
v -0.998447 -0.161113 -0.268029
v -0.892571 1.100566 -0.179107
v -0.935550 0.682846 -0.307968
v -0.974661 0.676214 -0.223154
v -0.993808 0.676498 -0.231960
v -0.954697 0.683129 -0.316775
v -0.606147 1.537619 0.016919
v -0.624836 1.534450 0.057449
v -0.631528 1.534550 0.054371
v -0.612838 1.537718 0.013841
v -1.013224 -0.150931 -0.222394
v -1.188235 1.103636 -0.240956
v -1.124782 -0.161612 -0.323309
v -1.221335 1.100467 -0.270897
v -0.988357 -0.150432 -0.249937
v -1.183299 1.103735 -0.246423
v -1.099915 -0.161113 -0.350852
v -1.216399 1.100566 -0.276364
v -1.080582 0.682846 -0.278898
v -1.149846 0.676215 -0.341553
v -1.135723 0.676498 -0.357196
v -1.066459 0.683129 -0.294541
v -1.489019 1.537619 -0.061555
v -1.522118 1.534451 -0.091496
v -1.517182 1.534550 -0.096963
v -1.484083 1.537719 -0.067022
vn -0.4651 -0.2300 -0.8549
vn 0.8859 -0.0134 -0.4637
vn 0.4635 0.2595 0.8473
vn -0.8794 0.1280 0.4586
vn -0.0565 -0.9974 0.0447
vn 0.4066 0.6039 0.6856
vn -0.8816 0.1048 0.4601
vn 0.4644 0.0230 0.8853
vn 0.8855 -0.0368 -0.4632
vn -0.4633 -0.0039 -0.8862
vn 0.0565 0.9974 -0.0448
vn -0.4066 -0.6039 -0.6856
vn -0.8638 0.2287 0.4489
vn 0.8638 -0.2287 -0.4489
vn 0.8905 -0.2300 0.3926
vn -0.4180 -0.0134 0.9083
vn -0.8846 0.2595 -0.3876
vn 0.4160 0.1280 -0.9003
vn 0.0174 -0.9974 -0.0700
vn -0.7407 0.6039 -0.2943
vn 0.4169 0.1048 -0.9029
vn -0.9085 0.0230 -0.4172
vn -0.4180 -0.0368 0.9077
vn 0.9082 -0.0039 0.4185
vn -0.0174 0.9974 0.0700
vn 0.7407 -0.6039 0.2943
vn 0.4096 0.2287 -0.8831
vn -0.4096 -0.2287 0.8831
vn -0.6407 -0.2300 0.7326
vn -0.7421 -0.0134 -0.6702
vn 0.6341 0.2595 -0.7284
vn 0.7350 0.1280 0.6659
vn 0.0616 -0.9974 0.0375
vn 0.5021 0.6039 -0.6190
vn 0.7372 0.1048 0.6675
vn 0.6695 0.0230 -0.7425
vn -0.7414 -0.0368 -0.6700
vn -0.6706 -0.0039 0.7418
vn -0.0616 0.9974 -0.0375
vn -0.5021 -0.6039 0.6190
vn 0.7205 0.2287 0.6546
vn -0.7205 -0.2287 -0.6547
usemtl Grass
s off
f 9//1 2//1 4//1 10//1
f 10//2 4//2 8//2 11//2
f 11//3 8//3 6//3 12//3
f 12//4 6//4 2//4 9//4
f 3//5 7//5 5//5 1//5
f 6//6 8//6 15//6 16//6
f 5//7 12//7 9//7 1//7
f 7//8 11//8 12//8 5//8
f 3//9 10//9 11//9 7//9
f 1//10 9//10 10//10 3//10
f 15//11 14//11 13//11 16//11
f 4//12 2//12 13//12 14//12
f 2//13 6//13 16//13 13//13
f 8//14 4//14 14//14 15//14
f 25//15 18//15 20//15 26//15
f 26//16 20//16 24//16 27//16
f 27//17 24//17 22//17 28//17
f 28//18 22//18 18//18 25//18
f 19//19 23//19 21//19 17//19
f 22//20 24//20 31//20 32//20
f 21//21 28//21 25//21 17//21
f 23//22 27//22 28//22 21//22
f 19//23 26//23 27//23 23//23
f 17//24 25//24 26//24 19//24
f 31//25 30//25 29//25 32//25
f 20//26 18//26 29//26 30//26
f 18//27 22//27 32//27 29//27
f 24//28 20//28 30//28 31//28
f 41//29 34//29 36//29 42//29
f 42//30 36//30 40//30 43//30
f 43//31 40//31 38//31 44//31
f 44//32 38//32 34//32 41//32
f 35//33 39//33 37//33 33//33
f 38//34 40//34 47//34 48//34
f 37//35 44//35 41//35 33//35
f 39//36 43//36 44//36 37//36
f 35//37 42//37 43//37 39//37
f 33//38 41//38 42//38 35//38
f 47//39 46//39 45//39 48//39
f 36//40 34//40 45//40 46//40
f 34//41 38//41 48//41 45//41
f 40//42 36//42 46//42 47//42
